<svg width="657.9px" height="121.6px" xmlns="http://www.w3.org/2000/svg" viewBox="-78.96251220703124 14.199996948242188 657.9250244140625 121.60000610351562" style="background: rgba(0, 0, 0, 0)" preserveAspectRatio="xMidYMid"><defs><linearGradient id="editing-gradient-gradient" x1="0" x2="1" y1="0.5" y2="0.5" gradientUnits="objectBoundingBox"><stop offset="0" stop-color="#0043ff"></stop><stop offset="1" stop-color="#00ffb5"></stop></linearGradient></defs><g><g transform="matrix(1.1,0,0,1.2,-11.8,-1685.4)"><path d="M 5.2 1491.7 L -8.7 1491.7 L -0.6 1449.4 L 13.5 1449.4 L 5.2 1491.7 Z M 61 1492.9 L 61 1492.9 L 61 1492.9 Q 53.2 1492.9 53.2 1486.9 L 53.2 1486.9 L 53.2 1486.9 Q 53.2 1484.3 54.3 1479.2 L 54.3 1479.2 L 54.3 1479.2 Q 55.5 1474.1 55.8 1472.1 L 55.8 1472.1 L 55.8 1472.1 Q 56.7 1467.4 56.7 1465.9 L 56.7 1465.9 L 56.7 1465.9 Q 56.7 1462.7 54.3 1462.7 L 54.3 1462.7 L 54.3 1462.7 Q 52.7 1462.7 51.2 1464.9 L 51.2 1464.9 L 51.2 1464.9 Q 49.6 1467.1 48.9 1471.5 L 48.9 1471.5 L 45 1491.7 L 32.5 1492.9 L 35.9 1475.5 L 35.9 1475.5 Q 36.5 1472.7 37 1469.4 L 37 1469.4 L 37 1469.4 Q 37.5 1466.1 37.5 1465.6 L 37.5 1465.6 L 37.5 1465.6 Q 37.5 1462.7 35.4 1462.7 L 35.4 1462.7 L 35.4 1462.7 Q 33.9 1462.7 32.3 1464.8 L 32.3 1464.8 L 32.3 1464.8 Q 30.7 1467 29.8 1471.5 L 29.8 1471.5 L 25.9 1491.7 L 13.3 1492.9 L 20 1459 L 30.4 1457.7 L 29.3 1464.2 L 29.3 1464.2 Q 31 1460.8 34.1 1459.2 L 34.1 1459.2 L 34.1 1459.2 Q 37.2 1457.7 42 1457.7 L 42 1457.7 L 42 1457.7 Q 44.7 1457.7 46.5 1459.1 L 46.5 1459.1 L 46.5 1459.1 Q 48.3 1460.4 48.9 1462.6 L 48.9 1462.6 L 48.9 1462.6 Q 50 1460.4 52.7 1459.1 L 52.7 1459.1 L 52.7 1459.1 Q 55.5 1457.7 58.9 1457.7 L 58.9 1457.7 L 58.9 1457.7 Q 62.4 1457.7 64.1 1458.5 L 64.1 1458.5 L 64.1 1458.5 Q 65.8 1459.2 66.8 1460.4 L 66.8 1460.4 L 66.8 1460.4 Q 68.5 1462.7 68.5 1466.8 L 68.5 1466.8 L 68.5 1466.8 Q 68.5 1470.8 66.8 1479.2 L 66.8 1479.2 L 66.8 1479.2 Q 65.9 1483.3 65.9 1484.8 L 65.9 1484.8 L 65.9 1484.8 Q 65.9 1486.3 66.8 1487.2 L 66.8 1487.2 L 66.8 1487.2 Q 67.6 1488.1 68.9 1488.2 L 68.9 1488.2 L 68.9 1488.2 Q 68.3 1490.4 66.1 1491.7 L 66.1 1491.7 L 66.1 1491.7 Q 63.8 1492.9 61 1492.9 Z M 76.6 1489.7 L 76.6 1489.7 L 76.6 1489.7 Q 75.1 1488.1 74.4 1485.5 L 74.4 1485.5 L 74.4 1485.5 Q 73.8 1482.8 73.8 1478.5 L 73.8 1478.5 L 73.8 1478.5 Q 73.8 1474.3 75.2 1470.4 L 75.2 1470.4 L 75.2 1470.4 Q 76.7 1466.4 79.4 1463.6 L 79.4 1463.6 L 79.4 1463.6 Q 84.9 1457.7 94 1457.7 L 94 1457.7 L 94 1457.7 Q 97.3 1457.7 99.6 1458.8 L 99.6 1458.8 L 110.6 1457.7 L 105.8 1482.7 L 105.8 1482.7 Q 105.6 1483.5 105.6 1484.9 L 105.6 1484.9 L 105.6 1484.9 Q 105.6 1486.3 106.5 1487.2 L 106.5 1487.2 L 106.5 1487.2 Q 107.4 1488.1 108.6 1488.2 L 108.6 1488.2 L 108.6 1488.2 Q 108 1490.4 105.7 1491.7 L 105.7 1491.7 L 105.7 1491.7 Q 103.3 1492.9 100.7 1492.9 L 100.7 1492.9 L 100.7 1492.9 Q 98.1 1492.9 96.3 1492 L 96.3 1492 L 96.3 1492 Q 94.6 1491 94.1 1489.3 L 94.1 1489.3 L 94.1 1489.3 Q 93 1490.9 90.9 1491.9 L 90.9 1491.9 L 90.9 1491.9 Q 88.7 1492.9 85.8 1492.9 L 85.8 1492.9 L 85.8 1492.9 Q 82.9 1492.9 80.5 1492.2 L 80.5 1492.2 L 80.5 1492.2 Q 78.1 1491.4 76.6 1489.7 Z M 90.1 1463.8 L 90.1 1463.8 L 90.1 1463.8 Q 89.4 1464.9 88.7 1466.9 L 88.7 1466.9 L 88.7 1466.9 Q 88.1 1468.8 87 1474 L 87 1474 L 87 1474 Q 86 1479.2 86 1483 L 86 1483 L 86 1483 Q 86 1486.7 86.6 1487.8 L 86.6 1487.8 L 86.6 1487.8 Q 87.1 1488.8 88.2 1488.8 L 88.2 1488.8 L 88.2 1488.8 Q 90.2 1488.8 91.7 1486.9 L 91.7 1486.9 L 91.7 1486.9 Q 93.2 1484.9 93.8 1481.5 L 93.8 1481.5 L 97.2 1462.7 L 97.2 1462.7 Q 95.8 1461.6 94.3 1461.6 L 94.3 1461.6 L 94.3 1461.6 Q 92.7 1461.6 91.8 1462.1 L 91.8 1462.1 L 91.8 1462.1 Q 90.9 1462.6 90.1 1463.8 Z M 118.3 1464.9 L 118.3 1464.9 L 118.3 1464.9 Q 120.5 1461.8 123.8 1459.8 L 123.8 1459.8 L 123.8 1459.8 Q 127.1 1457.7 131.1 1457.7 L 131.1 1457.7 L 131.1 1457.7 Q 135.1 1457.7 137.1 1459 L 137.1 1459 L 149.6 1457.7 L 145.3 1482.3 L 145.3 1482.3 Q 143 1494.9 138.3 1499.8 L 138.3 1499.8 L 138.3 1499.8 Q 133.7 1504.5 124.9 1504.5 L 124.9 1504.5 L 124.9 1504.5 Q 118.2 1504.5 114.3 1502.4 L 114.3 1502.4 L 114.3 1502.4 Q 110.5 1500.2 110.5 1496.7 L 110.5 1496.7 L 110.5 1496.7 Q 110.5 1494.1 112.5 1492.6 L 112.5 1492.6 L 112.5 1492.6 Q 114.5 1491.1 117.5 1491.1 L 117.5 1491.1 L 117.5 1491.1 Q 120.2 1491.1 122.3 1492.3 L 122.3 1492.3 L 122.3 1492.3 Q 123.5 1492.9 124.1 1493.8 L 124.1 1493.8 L 124.1 1493.8 Q 122.6 1495.1 122.6 1497.2 L 122.6 1497.2 L 122.6 1497.2 Q 122.6 1500 125.2 1500 L 125.2 1500 L 125.2 1500 Q 129.4 1500 131.9 1489.9 L 131.9 1489.9 L 131.9 1489.9 Q 132.6 1487.1 133.2 1484.4 L 133.2 1484.4 L 133.2 1484.4 Q 130.3 1487.9 123.7 1487.9 L 123.7 1487.9 L 123.7 1487.9 Q 119.2 1487.9 116.6 1485.7 L 116.6 1485.7 L 116.6 1485.7 Q 114 1483.5 114 1478.4 L 114 1478.4 L 114 1478.4 Q 114 1475.2 115 1471.6 L 115 1471.6 L 115 1471.6 Q 116.1 1468 118.3 1464.9 Z M 126.6 1478.6 L 126.6 1478.6 L 126.6 1478.6 Q 126.6 1483 128.9 1483 L 128.9 1483 L 128.9 1483 Q 130.4 1483 131.9 1481.3 L 131.9 1481.3 L 131.9 1481.3 Q 133 1480 133.5 1478 L 133.5 1478 L 136.7 1461.5 L 136.7 1461.5 Q 136.4 1461.5 136.1 1461.3 L 136.1 1461.3 L 136.1 1461.3 Q 135.5 1461.1 134.6 1461.1 L 134.6 1461.1 L 134.6 1461.1 Q 130.7 1461.1 128.4 1467.5 L 128.4 1467.5 L 128.4 1467.5 Q 126.6 1472.5 126.6 1478.6 Z M 178 1480.8 L 178 1480.8 L 178 1480.8 Q 179.6 1481.9 179.6 1484.3 L 179.6 1484.3 L 179.6 1484.3 Q 179.6 1486.7 178.4 1488.3 L 178.4 1488.3 L 178.4 1488.3 Q 177.2 1489.8 175.2 1490.8 L 175.2 1490.8 L 175.2 1490.8 Q 171.1 1492.9 166.7 1492.9 L 166.7 1492.9 L 166.7 1492.9 Q 162.3 1492.9 159.7 1492 L 159.7 1492 L 159.7 1492 Q 157.1 1491 155.4 1489.2 L 155.4 1489.2 L 155.4 1489.2 Q 152 1485.8 152 1479.6 L 152 1479.6 L 152 1479.6 Q 152 1470 157.2 1464.1 L 157.2 1464.1 L 157.2 1464.1 Q 162.9 1457.7 172.6 1457.7 L 172.6 1457.7 L 172.6 1457.7 Q 178.7 1457.7 181.7 1460.3 L 181.7 1460.3 L 181.7 1460.3 Q 184 1462.2 184 1465.4 L 184 1465.4 L 184 1465.4 Q 184 1476.6 164.5 1476.6 L 164.5 1476.6 L 164.5 1476.6 Q 164.3 1478.3 164.3 1479.7 L 164.3 1479.7 L 164.3 1479.7 Q 164.3 1482.6 165.6 1483.8 L 165.6 1483.8 L 165.6 1483.8 Q 166.9 1484.9 169.3 1484.9 L 169.3 1484.9 L 169.3 1484.9 Q 171.7 1484.9 174.3 1483.8 L 174.3 1483.8 L 174.3 1483.8 Q 176.9 1482.6 178 1480.8 Z M 165 1473.9 L 165 1473.9 L 165 1473.9 Q 169.5 1473.9 172.1 1471.1 L 172.1 1471.1 L 172.1 1471.1 Q 174.8 1468.4 174.8 1464.1 L 174.8 1464.1 L 174.8 1464.1 Q 174.8 1462.6 174.2 1461.8 L 174.2 1461.8 L 174.2 1461.8 Q 173.7 1461 172.6 1461 L 172.6 1461 L 172.6 1461 Q 171.5 1461 170.6 1461.4 L 170.6 1461.4 L 170.6 1461.4 Q 169.6 1461.8 168.7 1463.2 L 168.7 1463.2 L 168.7 1463.2 Q 166.3 1466.4 165 1473.9 Z M 205.3 1469.2 L 205.3 1469.2 L 205.3 1469.2 Q 206.2 1466.8 206.2 1464.8 L 206.2 1464.8 L 206.2 1464.8 Q 206.2 1461 203.1 1461 L 203.1 1461 L 203.1 1461 Q 201.5 1461 200.2 1462.4 L 200.2 1462.4 L 200.2 1462.4 Q 198.9 1463.9 198.9 1465.7 L 198.9 1465.7 L 198.9 1465.7 Q 198.9 1467 199.9 1468 L 199.9 1468 L 199.9 1468 Q 201.4 1469.4 205.2 1471.7 L 205.2 1471.7 L 205.2 1471.7 Q 208.9 1474 210.4 1475.9 L 210.4 1475.9 L 210.4 1475.9 Q 211.8 1477.8 211.8 1480.4 L 211.8 1480.4 L 211.8 1480.4 Q 211.8 1483 210.6 1485.3 L 210.6 1485.3 L 210.6 1485.3 Q 209.3 1487.7 207.1 1489.4 L 207.1 1489.4 L 207.1 1489.4 Q 202.3 1492.9 194.6 1492.9 L 194.6 1492.9 L 194.6 1492.9 Q 190.4 1492.9 187.2 1490.8 L 187.2 1490.8 L 187.2 1490.8 Q 184 1488.7 184 1486.2 L 184 1486.2 L 184 1486.2 Q 184 1483.7 185.9 1482.2 L 185.9 1482.2 L 185.9 1482.2 Q 187.7 1480.7 190.4 1480.7 L 190.4 1480.7 L 190.4 1480.7 Q 193.1 1480.7 194.7 1481.7 L 194.7 1481.7 L 194.7 1481.7 Q 193.9 1483.9 193.9 1485.3 L 193.9 1485.3 L 193.9 1485.3 Q 193.9 1489.5 197.5 1489.5 L 197.5 1489.5 L 197.5 1489.5 Q 199 1489.5 200 1488.5 L 200 1488.5 L 200 1488.5 Q 201.1 1487.6 201.1 1485.9 L 201.1 1485.9 L 201.1 1485.9 Q 201.1 1482.6 195.6 1479.2 L 195.6 1479.2 L 195.6 1479.2 Q 191.1 1476.2 190.1 1475.1 L 190.1 1475.1 L 190.1 1475.1 Q 188.3 1473 188.3 1470.5 L 188.3 1470.5 L 188.3 1470.5 Q 188.3 1467.9 189.5 1465.5 L 189.5 1465.5 L 189.5 1465.5 Q 190.8 1463.1 193 1461.3 L 193 1461.3 L 193 1461.3 Q 197.7 1457.7 205.8 1457.7 L 205.8 1457.7 L 205.8 1457.7 Q 210 1457.7 212.4 1459.4 L 212.4 1459.4 L 212.4 1459.4 Q 214.9 1461.1 214.9 1463.9 L 214.9 1463.9 L 214.9 1463.9 Q 214.9 1466.7 213.2 1468.3 L 213.2 1468.3 L 213.2 1468.3 Q 211.5 1469.9 208.4 1469.9 L 208.4 1469.9 L 208.4 1469.9 Q 206.3 1469.9 205.3 1469.2 Z M 256.4 1471.1 L 269.3 1469.9 L 269.3 1469.9 Q 264.7 1480 264.7 1491.7 L 264.7 1491.7 L 264.7 1491.7 Q 262.9 1492.9 260.4 1492.9 L 260.4 1492.9 L 260.4 1492.9 Q 257.9 1492.9 256.3 1491.8 L 256.3 1491.8 L 256.3 1491.8 Q 254.7 1490.6 254.4 1489.4 L 254.4 1489.4 L 254.4 1489.4 Q 252.8 1491 250.2 1492 L 250.2 1492 L 250.2 1492 Q 247.6 1492.9 244.8 1492.9 L 244.8 1492.9 L 244.8 1492.9 Q 242.1 1492.9 239.7 1492 L 239.7 1492 L 239.7 1492 Q 237.3 1491.2 235.4 1489.2 L 235.4 1489.2 L 235.4 1489.2 Q 231.3 1484.8 231.3 1476.6 L 231.3 1476.6 L 231.3 1476.6 Q 231.3 1463.8 238.2 1456.1 L 238.2 1456.1 L 238.2 1456.1 Q 245.2 1448.1 257.7 1448.1 L 257.7 1448.1 L 257.7 1448.1 Q 266.3 1448.1 269.4 1452.6 L 269.4 1452.6 L 269.4 1452.6 Q 270.4 1454 270.4 1455.7 L 270.4 1455.7 L 270.4 1455.7 Q 270.4 1457.4 269.6 1458.9 L 269.6 1458.9 L 269.6 1458.9 Q 268.9 1460.3 267.7 1461.5 L 267.7 1461.5 L 267.7 1461.5 Q 265 1464 261.6 1464 L 261.6 1464 L 261.6 1464 Q 260.3 1464 259 1463.6 L 259 1463.6 L 259 1463.6 Q 259.2 1461.6 259.2 1459.4 L 259.2 1459.4 L 259.2 1459.4 Q 259.2 1457.2 259.1 1456.1 L 259.1 1456.1 L 259.1 1456.1 Q 258.9 1455.1 258.5 1454.3 L 258.5 1454.3 L 258.5 1454.3 Q 257.7 1452.6 255.9 1452.6 L 255.9 1452.6 L 255.9 1452.6 Q 254.1 1452.6 252 1454.5 L 252 1454.5 L 252 1454.5 Q 250 1456.5 248.4 1459.7 L 248.4 1459.7 L 248.4 1459.7 Q 244.9 1466.8 244.9 1475.5 L 244.9 1475.5 L 244.9 1475.5 Q 244.9 1479.4 246.4 1482.3 L 246.4 1482.3 L 246.4 1482.3 Q 248.1 1485.3 251 1485.3 L 251 1485.3 L 251 1485.3 Q 252.1 1485.3 253 1484.8 L 253 1484.8 L 253 1484.8 Q 253.9 1484.3 254.3 1483.9 L 254.3 1483.9 L 256.4 1471.1 Z M 275.2 1489.7 L 275.2 1489.7 L 275.2 1489.7 Q 273.7 1488.1 273 1485.5 L 273 1485.5 L 273 1485.5 Q 272.4 1482.8 272.4 1478.5 L 272.4 1478.5 L 272.4 1478.5 Q 272.4 1474.3 273.8 1470.4 L 273.8 1470.4 L 273.8 1470.4 Q 275.3 1466.4 278 1463.6 L 278 1463.6 L 278 1463.6 Q 283.5 1457.7 292.6 1457.7 L 292.6 1457.7 L 292.6 1457.7 Q 295.8 1457.7 298.2 1458.8 L 298.2 1458.8 L 309.2 1457.7 L 304.4 1482.7 L 304.4 1482.7 Q 304.2 1483.5 304.2 1484.9 L 304.2 1484.9 L 304.2 1484.9 Q 304.2 1486.3 305.1 1487.2 L 305.1 1487.2 L 305.1 1487.2 Q 306 1488.1 307.2 1488.2 L 307.2 1488.2 L 307.2 1488.2 Q 306.6 1490.4 304.3 1491.7 L 304.3 1491.7 L 304.3 1491.7 Q 301.9 1492.9 299.3 1492.9 L 299.3 1492.9 L 299.3 1492.9 Q 296.7 1492.9 294.9 1492 L 294.9 1492 L 294.9 1492 Q 293.2 1491 292.6 1489.3 L 292.6 1489.3 L 292.6 1489.3 Q 291.6 1490.9 289.4 1491.9 L 289.4 1491.9 L 289.4 1491.9 Q 287.3 1492.9 284.4 1492.9 L 284.4 1492.9 L 284.4 1492.9 Q 281.4 1492.9 279.1 1492.2 L 279.1 1492.2 L 279.1 1492.2 Q 276.7 1491.4 275.2 1489.7 Z M 288.7 1463.8 L 288.7 1463.8 L 288.7 1463.8 Q 288 1464.9 287.3 1466.9 L 287.3 1466.9 L 287.3 1466.9 Q 286.7 1468.8 285.6 1474 L 285.6 1474 L 285.6 1474 Q 284.6 1479.2 284.6 1483 L 284.6 1483 L 284.6 1483 Q 284.6 1486.7 285.2 1487.8 L 285.2 1487.8 L 285.2 1487.8 Q 285.7 1488.8 286.8 1488.8 L 286.8 1488.8 L 286.8 1488.8 Q 288.8 1488.8 290.3 1486.9 L 290.3 1486.9 L 290.3 1486.9 Q 291.8 1484.9 292.4 1481.5 L 292.4 1481.5 L 295.8 1462.7 L 295.8 1462.7 Q 294.4 1461.6 292.9 1461.6 L 292.9 1461.6 L 292.9 1461.6 Q 291.3 1461.6 290.4 1462.1 L 290.4 1462.1 L 290.4 1462.1 Q 289.4 1462.6 288.7 1463.8 Z M 327.9 1488.1 L 327.9 1488.1 L 327.9 1488.1 Q 325.9 1492.9 319.6 1492.9 L 319.6 1492.9 L 319.6 1492.9 Q 316.4 1492.9 314.3 1490.7 L 314.3 1490.7 L 314.3 1490.7 Q 312.7 1488.8 312.7 1486.7 L 312.7 1486.7 L 312.7 1486.7 Q 312.7 1481.9 314.9 1471.4 L 314.9 1471.4 L 319.6 1446.9 L 332.6 1445.6 L 326.4 1478 L 326.4 1478 Q 325.3 1482.7 325.3 1484.4 L 325.3 1484.4 L 325.3 1484.4 Q 325.3 1488 327.9 1488.1 Z M 348.6 1488.1 L 348.6 1488.1 L 348.6 1488.1 Q 346.7 1492.9 340.3 1492.9 L 340.3 1492.9 L 340.3 1492.9 Q 337.1 1492.9 335.1 1490.7 L 335.1 1490.7 L 335.1 1490.7 Q 333.4 1488.8 333.4 1486.7 L 333.4 1486.7 L 333.4 1486.7 Q 333.4 1481.9 335.7 1471.4 L 335.7 1471.4 L 340.3 1446.9 L 353.3 1445.6 L 347.1 1478 L 347.1 1478 Q 346 1482.7 346 1484.4 L 346 1484.4 L 346 1484.4 Q 346 1488 348.6 1488.1 Z M 380 1480.8 L 380 1480.8 L 380 1480.8 Q 381.6 1481.9 381.6 1484.3 L 381.6 1484.3 L 381.6 1484.3 Q 381.6 1486.7 380.4 1488.3 L 380.4 1488.3 L 380.4 1488.3 Q 379.2 1489.8 377.2 1490.8 L 377.2 1490.8 L 377.2 1490.8 Q 373.1 1492.9 368.7 1492.9 L 368.7 1492.9 L 368.7 1492.9 Q 364.3 1492.9 361.7 1492 L 361.7 1492 L 361.7 1492 Q 359.1 1491 357.3 1489.2 L 357.3 1489.2 L 357.3 1489.2 Q 354 1485.8 354 1479.6 L 354 1479.6 L 354 1479.6 Q 354 1470 359.2 1464.1 L 359.2 1464.1 L 359.2 1464.1 Q 364.8 1457.7 374.6 1457.7 L 374.6 1457.7 L 374.6 1457.7 Q 380.7 1457.7 383.7 1460.3 L 383.7 1460.3 L 383.7 1460.3 Q 386 1462.2 386 1465.4 L 386 1465.4 L 386 1465.4 Q 386 1476.6 366.5 1476.6 L 366.5 1476.6 L 366.5 1476.6 Q 366.2 1478.3 366.2 1479.7 L 366.2 1479.7 L 366.2 1479.7 Q 366.2 1482.6 367.6 1483.8 L 367.6 1483.8 L 367.6 1483.8 Q 368.9 1484.9 371.3 1484.9 L 371.3 1484.9 L 371.3 1484.9 Q 373.7 1484.9 376.3 1483.8 L 376.3 1483.8 L 376.3 1483.8 Q 378.9 1482.6 380 1480.8 Z M 366.9 1473.9 L 366.9 1473.9 L 366.9 1473.9 Q 371.5 1473.9 374.1 1471.1 L 374.1 1471.1 L 374.1 1471.1 Q 376.7 1468.4 376.7 1464.1 L 376.7 1464.1 L 376.7 1464.1 Q 376.7 1462.6 376.2 1461.8 L 376.2 1461.8 L 376.2 1461.8 Q 375.7 1461 374.6 1461 L 374.6 1461 L 374.6 1461 Q 373.5 1461 372.5 1461.4 L 372.5 1461.4 L 372.5 1461.4 Q 371.6 1461.8 370.7 1463.2 L 370.7 1463.2 L 370.7 1463.2 Q 368.3 1466.4 366.9 1473.9 Z M 408.2 1473.7 L 408.2 1473.7 L 408.2 1473.7 Q 410.5 1469.6 410.5 1465.4 L 410.5 1465.4 L 410.5 1465.4 Q 410.5 1462.7 408.5 1462.7 L 408.5 1462.7 L 408.5 1462.7 Q 406.9 1462.7 405.3 1465.3 L 405.3 1465.3 L 405.3 1465.3 Q 403.7 1467.9 403.2 1471.3 L 403.2 1471.3 L 399.8 1491.7 L 386.6 1492.9 L 393.1 1459 L 403.7 1457.7 L 402.5 1464.2 L 402.5 1464.2 Q 405.7 1457.7 412.7 1457.7 L 412.7 1457.7 L 412.7 1457.7 Q 416.4 1457.7 418.4 1459.7 L 418.4 1459.7 L 418.4 1459.7 Q 420.5 1461.6 420.5 1465.5 L 420.5 1465.5 L 420.5 1465.5 Q 420.5 1469.5 417.9 1472 L 417.9 1472 L 417.9 1472 Q 415.3 1474.4 410.9 1474.4 L 410.9 1474.4 L 410.9 1474.4 Q 408.9 1474.4 408.2 1473.7 Z M 441.8 1484.4 L 441.8 1484.4 L 441.8 1484.4 Q 438.5 1487.9 432.4 1487.9 L 432.4 1487.9 L 432.4 1487.9 Q 424.8 1487.9 423.2 1482.3 L 423.2 1482.3 L 423.2 1482.3 Q 422.7 1480.7 422.7 1478.8 L 422.7 1478.8 L 422.7 1478.8 Q 422.7 1476.9 423.1 1475 L 423.1 1475 L 426.1 1459 L 439.1 1457.7 L 435.6 1476.4 L 435.6 1476.4 Q 435.4 1477.2 435.2 1478.1 L 435.2 1478.1 L 435.2 1478.1 Q 435 1479 435 1479.9 L 435 1479.9 L 435 1479.9 Q 435 1480.8 435.4 1481.5 L 435.4 1481.5 L 435.4 1481.5 Q 435.7 1482.1 436.1 1482.4 L 436.1 1482.4 L 436.1 1482.4 Q 436.9 1483 438.3 1483 L 438.3 1483 L 438.3 1483 Q 439.7 1483 440.8 1481.3 L 440.8 1481.3 L 440.8 1481.3 Q 442 1479.6 442.6 1476.8 L 442.6 1476.8 L 446.1 1459 L 458.7 1457.7 L 453.9 1482.9 L 453.9 1482.9 Q 451.6 1495.2 446.7 1500 L 446.7 1500 L 446.7 1500 Q 444.2 1502.5 441 1503.5 L 441 1503.5 L 441 1503.5 Q 437.7 1504.5 433.6 1504.5 L 433.6 1504.5 L 433.6 1504.5 Q 426.9 1504.5 423 1502.4 L 423 1502.4 L 423 1502.4 Q 419.2 1500.3 419.2 1496.8 L 419.2 1496.8 L 419.2 1496.8 Q 419.2 1494.2 421.2 1492.7 L 421.2 1492.7 L 421.2 1492.7 Q 423.1 1491.2 426.2 1491.2 L 426.2 1491.2 L 426.2 1491.2 Q 428.9 1491.2 430.9 1492.3 L 430.9 1492.3 L 430.9 1492.3 Q 432.2 1493 432.7 1493.9 L 432.7 1493.9 L 432.7 1493.9 Q 431.3 1495.2 431.3 1497.3 L 431.3 1497.3 L 431.3 1497.3 Q 431.3 1500.1 433.8 1500.1 L 433.8 1500.1 L 433.8 1500.1 Q 438.1 1500.1 440.5 1490.4 L 440.5 1490.4 L 440.5 1490.4 Q 441.2 1487.5 441.8 1484.4 Z" fill="url(#editing-gradient-gradient)"></path></g></g><style>text {
  font-size: 64px;
  font-family: Arial Black;
  dominant-baseline: central;
  text-anchor: middle;
}</style></svg>